<svg xmlns="http://www.w3.org/2000/svg" viewBox="0 0 347.84 352.02"><title>Fichier 2sparkle</title><g id="Calque_2" data-name="Calque 2"><g id="Calque_1-2" data-name="Calque 1"><path d="M217.69,131.71c-39.12-39.1-43.45-86.81-43.8-103.83-.35,17-4.68,64.72-43.8,103.83s-86.9,43.42-103.85,43.76c17,.33,64.7,4.61,103.85,43.74S173.54,306,173.89,323c.35-17,4.68-64.72,43.8-103.83s86.9-43.42,103.85-43.76C304.59,175.12,256.84,170.84,217.69,131.71ZM192,194.57a65.63,65.63,0,0,0-18.13,35.32,65.58,65.58,0,0,0-18.13-35.33c-17.1-17.08-37.95-18.95-45.35-19.1,7.4-.14,28.25-2,45.35-19.11A65.63,65.63,0,0,0,173.89,121,65.58,65.58,0,0,0,192,156.36c17.1,17.08,37.95,18.95,45.35,19.1C230,175.6,209.12,177.48,192,194.57Z" style="fill:#231f20"/><path d="M110.19,82c4.52,4.52,1.4,15-7,23.34s-18.82,11.49-23.34,7-1.4-15,7-23.34S105.68,77.48,110.19,82Z" style="fill:#231f20"/><path d="M154.79,37.4c-13.7-13.7-51.56,2-84.56,34.95s-48.65,70.86-34.95,84.56S86.84,155,119.84,122,168.49,51.1,154.79,37.4Zm-40.51,79c-25.6,25.61-55,37.75-65.61,27.12s1.51-40,27.12-65.61,55-37.75,65.61-27.12S139.89,90.8,114.28,116.4Z" style="fill:#231f20"/><path d="M103.22,105.34c-8.38,8.37-18.82,11.49-23.34,7s-1.4-15,7-23.34,18.82-11.49,23.33-7S111.59,97,103.22,105.34Z" style="fill:#231f20"/><path d="M103.22,105.34c-8.38,8.37-18.82,11.49-23.34,7s-1.4-15,7-23.34,18.82-11.49,23.33-7S111.59,97,103.22,105.34Z" style="fill:#231f20"/><path d="M266.57,238.38c4.52,4.51,1.4,15-7,23.33s-18.83,11.5-23.34,7-1.4-15,7-23.34S262.05,233.86,266.57,238.38Z" style="fill:#231f20"/><path d="M311.17,193.78c-13.7-13.7-51.56,1.95-84.56,34.95s-48.65,70.86-35,84.56,51.56-2,84.56-35S324.87,207.48,311.17,193.78Zm-40.51,79c-25.6,25.61-55,37.75-65.61,27.12s1.51-40,27.12-65.61,55-37.75,65.61-27.12S296.27,247.18,270.66,272.78Z" style="fill:#231f20"/><path d="M259.6,261.71c-8.38,8.38-18.83,11.5-23.34,7s-1.4-15,7-23.34,18.82-11.49,23.34-7S268,253.34,259.6,261.71Z" style="fill:#231f20"/><path d="M259.6,261.71c-8.38,8.38-18.83,11.5-23.34,7s-1.4-15,7-23.34,18.82-11.49,23.34-7S268,253.34,259.6,261.71Z" style="fill:#231f20"/><path d="M103.22,245.35c8.37,8.38,11.49,18.82,7,23.34s-15,1.4-23.33-7-11.5-18.82-7-23.33S94.84,237,103.22,245.35Z" style="fill:#231f20"/><path d="M119.84,228.73c-33-33-70.86-48.65-84.56-34.95s1.95,51.56,35,84.56,70.86,48.65,84.56,35S152.84,261.73,119.84,228.73ZM141.4,299.9c-10.63,10.63-40-1.51-65.61-27.12S38,217.8,48.67,207.17s40,1.51,65.61,27.12S152,289.27,141.4,299.9Z" style="fill:#231f20"/><path d="M110.19,268.69c-4.51,4.52-15,1.4-23.33-7s-11.5-18.82-7-23.33,15-1.4,23.34,7S114.71,264.17,110.19,268.69Z" style="fill:#231f20"/><path d="M110.19,268.69c-4.51,4.52-15,1.4-23.33-7s-11.5-18.82-7-23.33,15-1.4,23.34,7S114.71,264.17,110.19,268.69Z" style="fill:#231f20"/><path d="M259.6,89c8.37,8.38,11.49,18.83,7,23.34s-15,1.4-23.34-7-11.49-18.82-7-23.34S251.22,80.6,259.6,89Z" style="fill:#231f20"/><path d="M276.22,72.35c-33-33-70.86-48.65-84.56-34.95s2,51.56,35,84.56,70.86,48.65,84.56,35S309.22,105.35,276.22,72.35Zm21.56,71.17c-10.63,10.63-40-1.51-65.61-27.12s-37.75-55-27.12-65.61,40,1.51,65.61,27.12S308.41,132.89,297.78,143.52Z" style="fill:#231f20"/><path d="M266.57,112.31c-4.52,4.52-15,1.4-23.34-7s-11.49-18.82-7-23.34,15-1.4,23.34,7S271.09,107.8,266.57,112.31Z" style="fill:#231f20"/><path d="M266.57,112.31c-4.52,4.52-15,1.4-23.34-7s-11.49-18.82-7-23.34,15-1.4,23.34,7S271.09,107.8,266.57,112.31Z" style="fill:#231f20"/><path d="M347.8,175.44a170.49,170.49,0,0,1-9,54,173.88,173.88,0,0,1-338-39.49,162.4,162.4,0,0,1,4.74-55.18A173,173,0,0,1,26.11,86.6,174,174,0,0,1,208.64,7.74,173,173,0,0,1,258,25.9,174.69,174.69,0,0,1,328.9,99.19a173.1,173.1,0,0,1,16.54,50.1,167.5,167.5,0,0,1,2.36,27.29c0,.29,0,1.47,0,1.49a11.58,11.58,0,0,1,0-2.63,179.59,179.59,0,0,0-7.92-53.55A173.57,173.57,0,0,0,316.51,74.3,174.09,174.09,0,0,0,125.78,6.76,173.38,173.38,0,0,0,77.59,29.12a174.41,174.41,0,0,0-65.42,80.93A173.64,173.64,0,0,0,.43,162.73a189.89,189.89,0,0,0,4,54.27,172.82,172.82,0,0,0,19.77,49.56,174.68,174.68,0,0,0,77.2,69.65,172.89,172.89,0,0,0,52,14.6,175.35,175.35,0,0,0,55.51-2.3A172.89,172.89,0,0,0,259,329.84a173.71,173.71,0,0,0,87.1-127.07,188.07,188.07,0,0,0,1.75-26.19,16.53,16.53,0,0,1,0-2.63A13.32,13.32,0,0,0,347.8,175.44Z" style="fill:#231f20"/><path d="M110.19,82c4.52,4.52,1.4,15-7,23.34s-18.82,11.49-23.34,7-1.4-15,7-23.34S105.68,77.48,110.19,82Z" style="fill:#231f20"/><path d="M154.79,37.4c-13.7-13.7-51.56,2-84.56,34.95s-48.65,70.86-34.95,84.56S86.84,155,119.84,122,168.49,51.1,154.79,37.4Zm-40.51,79c-25.6,25.61-55,37.75-65.61,27.12s1.51-40,27.12-65.61,55-37.75,65.61-27.12S139.89,90.8,114.28,116.4Z" style="fill:#231f20"/><path d="M103.22,105.34c-8.38,8.37-18.82,11.49-23.34,7s-1.4-15,7-23.34,18.82-11.49,23.33-7S111.59,97,103.22,105.34Z" style="fill:#231f20"/><path d="M103.22,105.34c-8.38,8.37-18.82,11.49-23.34,7s-1.4-15,7-23.34,18.82-11.49,23.33-7S111.59,97,103.22,105.34Z" style="fill:#231f20"/><path d="M266.57,238.38c4.52,4.51,1.4,15-7,23.33s-18.83,11.5-23.34,7-1.4-15,7-23.34S262.05,233.86,266.57,238.38Z" style="fill:#231f20"/><path d="M311.17,193.78c-13.7-13.7-51.56,1.95-84.56,34.95s-48.65,70.86-35,84.56,51.56-2,84.56-35S324.87,207.48,311.17,193.78Zm-40.51,79c-25.6,25.61-55,37.75-65.61,27.12s1.51-40,27.12-65.61,55-37.75,65.61-27.12S296.27,247.18,270.66,272.78Z" style="fill:#231f20"/><path d="M259.6,261.71c-8.38,8.38-18.83,11.5-23.34,7s-1.4-15,7-23.34,18.82-11.49,23.34-7S268,253.34,259.6,261.71Z" style="fill:#231f20"/><path d="M259.6,261.71c-8.38,8.38-18.83,11.5-23.34,7s-1.4-15,7-23.34,18.82-11.49,23.34-7S268,253.34,259.6,261.71Z" style="fill:#231f20"/></g></g></svg>