<?xml version="1.0" encoding="utf-8"?>
<!-- Generator: Adobe Illustrator 28.0.0, SVG Export Plug-In . SVG Version: 6.00 Build 0)  -->
<svg version="1.1" id="Calque_1" xmlns="http://www.w3.org/2000/svg" xmlns:xlink="http://www.w3.org/1999/xlink" x="0px" y="0px"
	 viewBox="0 0 22 28" style="enable-background:new 0 0 22 28;" xml:space="preserve">
<style type="text/css">
	.st0{fill:#FFFFFF;}
</style>
<g id="icon-phone-white">
	<path id="Shape" class="st0" d="M18.4,21.9c1,0,1.2-0.7,1.2-1.2c0-0.2,0-0.4-0.1-0.6c0-0.1-0.2-0.7-0.3-0.7
		c-0.4-1.4-0.6-2.2-1.2-3.1c-0.2-0.2-1.5-1.3-1.7-1.6c-1.5-1.7-1.6-4.1-1.6-4.2c0-0.2,0.1-0.7,0.2-0.7c0.1,0,0.8,0.2,0.8,0.8
		c0,0.2-0.3,1-0.3,1.2c0,1.6,3.4,2.2,4.3,2.2c1,0,1.2-0.5,1.2-1.4c0-1.4-0.5-2.8-2-3.6C16.5,7.4,12.8,7,11,7c-1.9,0-5.6,0.5-8,1.9
		C1.3,9.9,1,11.5,1,12.6C1,13.4,1.1,14,2.1,14c1,0,4.3-0.5,4.3-2.2c0-0.2,0-0.4-0.2-0.7c-0.1-0.3-0.1-0.3-0.1-0.5
		c0-0.6,0.7-0.8,0.7-0.8c0.2,0,0.3,0.5,0.3,0.7c0,0.1,0,0.8-0.3,1.8c-0.4,1.4-0.9,2.2-1.9,3c-0.8,0.7-1.7,1.4-2.1,3.4
		c0,0.2-0.2,0.7-0.2,0.8c-0.3,0.8-0.4,0.9-0.4,1.3c0,0.6,0.3,1.2,1.2,1.2C3.5,21.9,18.4,21.9,18.4,21.9z M11,9.8c0.4,0,0.6,0,1-0.1
		c0,0,0.5-0.1,0.5-0.1c0.4,0,0.4,0.4,0.4,0.6c0,0.6-0.1,0.7-1.9,0.7c-1.7,0-1.9-0.1-1.9-0.6c0-0.2,0.1-0.6,0.4-0.6
		c0.1,0,0.6,0.1,0.7,0.1C10.4,9.8,10.6,9.8,11,9.8z M11,12.5c2.1,0,3.9,1.7,3.9,3.8c0,0,0,0,0,0c0,2.1-1.7,3.9-3.9,3.9
		c-2.1,0-3.9-1.7-3.9-3.9c0,0,0,0,0,0C7.1,14.3,8.8,12.5,11,12.5C11,12.5,11,12.5,11,12.5C11,12.5,11,12.5,11,12.5z"/>
</g>
</svg>
