<?xml version="1.0" encoding="utf-8"?>
<!-- Generator: Adobe Illustrator 24.0.1, SVG Export Plug-In . SVG Version: 6.00 Build 0)  -->
<svg version="1.1" id="Calque_1" xmlns="http://www.w3.org/2000/svg" xmlns:xlink="http://www.w3.org/1999/xlink" x="0px" y="0px"
	 viewBox="0 0 1358.2 1358.2" style="enable-background:new 0 0 1358.2 1358.2;" xml:space="preserve">
<style type="text/css">
	.st0{fill:#111111;}
</style>
<title>Fichier 1sparkle</title>
<g id="Calque_2_1_">
	<g id="Calque_1-2">
		<path class="st0" d="M679.1,1333.2c-13.7,0-24.8-11-25-24.6c-0.9-58.4-16.5-261.8-179.6-424.9l-0.1-0.1c-1-1-1.9-1.9-2.9-2.9
			c-158.2-156-347.8-175.5-421.9-176.6c-13.8,0-25-11.2-25-25s11.2-25,25-25c74.2-1.1,263.8-20.6,422-176.6c0.9-0.9,1.9-1.9,2.9-2.9
			l0.1-0.1C637.7,311.4,653.2,108.1,654.1,49.6c0-13.8,11.2-25,25-25s25,11.2,25,25c0.9,58.4,16.5,261.8,179.6,424.9l0.1,0.1
			c1,1,1.9,1.9,2.9,2.9c158.2,156,347.8,175.5,421.9,176.6c13.8,0,25,11.2,25,25s-11.2,25-25,25c-74.2,1.1-263.8,20.6-422,176.6
			c-1,0.9-1.9,1.9-2.9,2.9l-0.1,0.1c-163.1,163.1-178.7,366.5-179.5,424.9C703.9,1322.3,692.8,1333.2,679.1,1333.2z"/>
		<path class="st0" d="M679.1,50c0.7,43.5,8.4,263.8,186.9,442.2c1,1,2,2,3.1,3.1c177.5,175.1,394,183.1,439.1,183.8
			c-45.2,0.7-261.7,8.7-439.2,183.8c-1,1-2,2-3.1,3.1c-178.5,178.5-186.2,398.7-186.9,442.2c-0.7-43.5-8.4-263.8-186.9-442.2
			c-1-1-2-2-3.1-3.1C311.7,687.8,95.2,679.8,50,679.1c45.2-0.7,261.7-8.7,439.1-183.8c1-1,2-2,3.1-3.1
			C670.7,313.8,678.5,93.5,679.1,50 M679.1,0c-27.3,0-49.6,21.9-50,49.2c-0.8,56.1-15.8,251.2-172.3,407.6l-0.2,0.2
			c-0.9,0.9-1.8,1.8-2.7,2.7C302.3,609.4,120.4,628,49.3,629.1c-27.6,0-50,22.4-50,50s22.4,50,50,50c71.1,1.1,253,19.7,404.7,169.4
			c0.9,0.9,1.8,1.8,2.7,2.7l0.2,0.2c156.5,156.4,171.4,351.5,172.3,407.6c0,27.6,22.4,50,50,50s50-22.4,50-50
			c0.8-56.1,15.8-251.2,172.3-407.6l0.2-0.2c0.9-0.9,1.8-1.8,2.7-2.7c151.7-149.7,333.6-168.4,404.8-169.4c27.6,0,50-22.4,50-50
			s-22.4-50-50-50c-71.1-1.1-253-19.7-404.7-169.4c-0.9-0.9-1.8-1.8-2.7-2.7l-0.2-0.2C744.9,300.4,730,105.3,729.1,49.2
			C728.7,21.9,706.4,0,679.1,0z"/>
	</g>
</g>
</svg>
