<svg xmlns="http://www.w3.org/2000/svg" viewBox="0 0 368.43 368.43"><title>Fichier 5sparkle</title><g id="Calque_2" data-name="Calque 2"><g id="Calque_1-2" data-name="Calque 1"><circle cx="184.21" cy="184.21" r="184.21" style="fill:#323232"/><path d="M228,139.91c-39.12-39.09-43.45-86.81-43.8-103.83-.35,17-4.68,64.73-43.8,103.83s-86.9,43.42-103.85,43.76c16.95.34,64.7,4.62,103.85,43.74s43.45,86.81,43.8,103.83c.35-17,4.68-64.71,43.8-103.83s86.9-43.42,103.85-43.76C314.88,183.33,267.13,179.05,228,139.91Zm-25.67,62.87a65.57,65.57,0,0,0-18.13,35.31,65.52,65.52,0,0,0-18.13-35.32c-17.1-17.09-38-19-45.35-19.11,7.4-.13,28.25-2,45.35-19.1a65.68,65.68,0,0,0,18.13-35.33,65.64,65.64,0,0,0,18.13,35.34c17.1,17.08,37.95,19,45.35,19.09C240.26,183.81,219.41,185.68,202.31,202.78Z"/><path d="M120.48,90.2c4.52,4.52,1.4,15-7,23.35s-18.82,11.49-23.34,7-1.4-15,7-23.35S116,85.68,120.48,90.2Z"/><path d="M165.08,45.6c-13.7-13.7-51.56,2-84.56,35s-48.65,70.85-34.95,84.55,51.56-2,84.56-35S178.78,59.31,165.08,45.6Zm-40.51,79C99,150.21,69.59,162.35,59,151.72s1.51-40,27.12-65.61,55-37.75,65.61-27.12S150.18,99,124.57,124.6Z"/><path d="M113.51,113.55c-8.38,8.36-18.82,11.49-23.34,7s-1.4-15,7-23.35,18.82-11.49,23.33-7S121.88,105.16,113.51,113.55Z"/><path d="M113.51,113.55c-8.38,8.36-18.82,11.49-23.34,7s-1.4-15,7-23.35,18.82-11.49,23.33-7S121.88,105.16,113.51,113.55Z"/><path d="M276.86,246.58c4.52,4.51,1.4,15-7,23.33s-18.83,11.5-23.34,7-1.4-15,7-23.34S272.34,242.07,276.86,246.58Z"/><path d="M321.46,202c-13.7-13.69-51.56,2-84.56,35s-48.65,70.87-35,84.56,51.56-1.94,84.56-34.94S335.16,215.68,321.46,202ZM281,281c-25.6,25.61-55,37.75-65.61,27.12s1.51-40,27.12-65.61,55-37.75,65.61-27.12S306.56,255.39,281,281Z"/><path d="M269.89,269.91c-8.38,8.39-18.83,11.5-23.34,7s-1.4-15,7-23.34,18.82-11.49,23.34-7S278.26,261.55,269.89,269.91Z"/><path d="M269.89,269.91c-8.38,8.39-18.83,11.5-23.34,7s-1.4-15,7-23.34,18.82-11.49,23.34-7S278.26,261.55,269.89,269.91Z"/><path d="M113.51,253.56c8.37,8.37,11.49,18.81,7,23.34s-15,1.4-23.33-7-11.5-18.82-7-23.33S105.13,245.18,113.51,253.56Z"/><path d="M130.13,236.93c-33-33-70.86-48.64-84.56-35s2,51.57,34.95,84.57,70.86,48.64,84.56,34.94S163.13,269.93,130.13,236.93Zm21.56,71.17c-10.63,10.63-40-1.51-65.61-27.12S48.33,226,59,215.37s40,1.52,65.61,27.12S162.32,297.47,151.69,308.1Z"/><path d="M120.48,276.9c-4.51,4.51-15,1.4-23.33-7s-11.5-18.82-7-23.33,15-1.4,23.34,7S125,272.37,120.48,276.9Z"/><path d="M120.48,276.9c-4.51,4.51-15,1.4-23.33-7s-11.5-18.82-7-23.33,15-1.4,23.34,7S125,272.37,120.48,276.9Z"/><path d="M269.89,97.17c8.37,8.39,11.49,18.84,7,23.35s-15,1.39-23.34-7-11.49-18.83-7-23.35S261.51,88.81,269.89,97.17Z"/><path d="M286.51,80.56c-33-33-70.86-48.66-84.56-35s2,51.56,35,84.56,70.86,48.66,84.56,35S319.51,113.56,286.51,80.56Zm21.56,71.16c-10.63,10.63-40-1.51-65.61-27.12s-37.75-55-27.12-65.61,40,1.52,65.61,27.12S318.7,141.09,308.07,151.72Z"/><path d="M276.86,120.52c-4.52,4.52-15,1.39-23.34-7s-11.49-18.83-7-23.35,15-1.39,23.34,7S281.38,116,276.86,120.52Z"/><path d="M276.86,120.52c-4.52,4.52-15,1.39-23.34-7s-11.49-18.83-7-23.35,15-1.39,23.34,7S281.38,116,276.86,120.52Z"/><path d="M358.09,183.64a170.49,170.49,0,0,1-9,54,173.88,173.88,0,0,1-338-39.49,162.42,162.42,0,0,1,4.74-55.18A173.12,173.12,0,0,1,36.4,94.8a174.59,174.59,0,0,1,76.78-67.18,173.18,173.18,0,0,1,51.2-14,175.94,175.94,0,0,1,54.56,2.34A173.23,173.23,0,0,1,268.28,34.1a174.53,174.53,0,0,1,70.91,73.29,173.1,173.1,0,0,1,16.54,50.1,167.5,167.5,0,0,1,2.36,27.29c0,.3,0,1.47,0,1.49a11.58,11.58,0,0,1,0-2.63,179.59,179.59,0,0,0-7.92-53.55A173.88,173.88,0,0,0,10.72,170.93a190.22,190.22,0,0,0,4,54.27A173,173,0,0,0,34.5,274.77a174.54,174.54,0,0,0,77.21,69.64,173.05,173.05,0,0,0,52,14.61,175.63,175.63,0,0,0,55.51-2.31A173.78,173.78,0,0,0,356.38,211a186.45,186.45,0,0,0,1.75-26.19,16.53,16.53,0,0,1,0-2.63A13.38,13.38,0,0,0,358.09,183.64Z"/></g></g></svg>